<svg width="258" height="258" viewBox="0 0 258 258" fill="none" xmlns="http://www.w3.org/2000/svg">
<path d="M84.9774 1.00488C114.302 0.97533 143.628 0.977909 172.953 1.00488C220.114 1.04839 256.949 37.8536 256.996 84.9824C257.025 114.307 257.023 143.632 256.996 172.957C256.953 220.115 220.145 256.949 173.014 256.996C143.856 257.025 114.698 257.001 85.0477 257.001C37.5821 256.66 1.05222 219.963 1.0047 173.027C0.975048 143.702 0.976902 114.377 1.00372 85.0518C1.04702 37.8888 37.8497 1.05247 84.9774 1.00488ZM171.214 123.789C162.732 123.666 154.229 123.444 145.773 123.926C142.751 124.098 139.839 126.199 136.393 128.031C135.678 130.212 134.38 132.383 134.345 134.575C134.145 146.881 134.092 159.195 134.312 171.5C134.429 178.033 138.649 182.087 145.058 182.198C153.872 182.351 162.691 182.345 171.505 182.198C178.065 182.089 182.116 178.102 182.192 171.567C182.335 159.26 182.328 146.949 182.202 134.642C182.132 127.839 178.08 123.889 171.214 123.789ZM112.281 145.017C103.955 144.925 95.6256 144.943 87.2986 145.011C80.5449 145.066 77.079 148.127 75.7567 155.851C75.7571 161.014 75.6561 166.18 75.783 171.34C75.9508 178.158 79.912 182.116 86.783 182.216C95.2752 182.34 103.772 182.321 112.264 182.223C119.356 182.14 123.474 178.184 123.728 171.162C123.909 166.172 123.906 161.165 123.731 156.175C123.489 149.269 119.18 145.092 112.281 145.017ZM112.99 168.808C112.021 170.188 111.074 171.843 110.082 171.87C102.285 172.086 94.4782 171.989 86.3426 171.989V156.165H112.991C112.991 160.127 112.991 164.227 112.99 168.808ZM171.745 171.613H145.007V134.3H171.745V171.613ZM112.51 75.7881C104.028 75.6723 95.543 75.6777 87.0613 75.7822C79.6757 75.8733 75.8275 79.8243 75.7772 87.3643C75.6983 99.1734 75.6909 110.984 75.7811 122.793C75.838 130.245 79.7606 134.14 87.2176 134.223C95.5332 134.315 103.858 134.443 112.163 134.127C114.815 134.026 117.416 132.556 120.599 131.163C121.65 128.606 123.541 126.071 123.608 123.488C123.928 111.188 123.907 98.8721 123.69 86.5674C123.571 79.8307 119.288 75.8807 112.51 75.7881ZM112.606 123.994H86.3065V86.2617H112.606V123.994ZM171.22 75.7852C162.748 75.6615 154.273 75.6813 145.802 75.7764C138.51 75.8582 134.456 79.8944 134.258 87.2256C134.128 92.0399 134.108 96.8649 134.263 101.678C134.494 108.813 138.804 112.931 146.024 112.991C154.164 113.06 162.315 113.233 170.44 112.883C173.238 112.762 175.975 111.203 179.305 109.759C180.285 107.03 181.856 104.356 182.117 101.561C182.579 96.6199 182.345 91.6018 182.216 86.6211C182.04 79.8333 178.077 75.8853 171.22 75.7852ZM171.648 102.227H148.629C146.773 101.22 145.208 100.266 145.132 99.2061C145.068 98.3128 145.026 97.4173 145 96.5176V88.4756C145.006 87.786 145.011 87.0887 145.011 86.3828H171.648V102.227Z" fill="#00C951"/>
</svg>
